<svg width="25" height="17" viewBox="0 0 25 17" fill="none" xmlns="http://www.w3.org/2000/svg">
<g clip-path="url(#clip0_126_92)">
<path d="M12.5 0C7.04844 0 2.32187 3.4544 0 8.5C2.32187 13.5456 7.04844 17 12.5 17C17.9516 17 22.6781 13.5456 25 8.5C22.6781 3.4544 17.9516 0 12.5 0ZM18.6641 4.5084C20.1328 5.5284 21.3781 6.8935 22.3125 8.5C21.3781 10.1082 20.1328 11.4733 18.6641 12.4916C16.8187 13.7717 14.6875 14.45 12.5016 14.45C10.3156 14.45 8.18438 13.7734 6.3375 12.4916C4.86875 11.4716 3.62344 10.1065 2.68906 8.5C3.62344 6.8918 4.86875 5.5267 6.3375 4.5084C6.43281 4.4421 6.52969 4.3775 6.62656 4.3146C6.38281 5.0405 6.25 5.8242 6.25 6.6419C6.25 10.3972 9.04844 13.4419 12.5 13.4419C15.9516 13.4419 18.75 10.3972 18.75 6.6419C18.75 5.8242 18.6172 5.0405 18.3734 4.3146C18.4703 4.3775 18.5687 4.4421 18.6641 4.5084ZM12.5 5.95C12.5 7.3576 11.45 8.5 10.1562 8.5C8.8625 8.5 7.8125 7.3576 7.8125 5.95C7.8125 4.5424 8.8625 3.4 10.1562 3.4C11.45 3.4 12.5 4.5424 12.5 5.95Z" fill="white"/>
</g>
<defs>
<clipPath id="clip0_126_92">
<rect width="25" height="17" fill="white"/>
</clipPath>
</defs>
</svg>
